<?xml version="1.0" encoding="utf-8"?>
<!-- Generator: Adobe Illustrator 26.1.0, SVG Export Plug-In . SVG Version: 6.00 Build 0)  -->
<svg version="1.1" id="Layer_1" xmlns="http://www.w3.org/2000/svg" xmlns:xlink="http://www.w3.org/1999/xlink" x="0px" y="0px"
	 viewBox="0 0 28.5 40.7" style="enable-background:new 0 0 28.5 40.7;" xml:space="preserve">
<style type="text/css">
	.st0{fill:#F2F2F2;}
	.st1{fill:#6F3DB0;}
	.st2{fill:#00B3D1;}
	.st3{fill:#FFFFFF;}
	.st4{fill-rule:evenodd;clip-rule:evenodd;fill:#FFFFFF;}
	.st5{fill:none;stroke:#FFFFFF;stroke-width:2.6756;stroke-miterlimit:10;}
	.st6{fill:none;stroke:#FFFFFF;stroke-width:7.5317;stroke-miterlimit:10;}
	.st7{fill:none;stroke:#6F3DB0;stroke-width:11.3386;stroke-miterlimit:10;}
	.st8{fill:none;stroke:#FFFFFF;stroke-width:8.5039;stroke-miterlimit:10;}
	.st9{fill:#E6E6E6;}
	.st10{fill:none;stroke:#000000;stroke-width:7.5317;stroke-miterlimit:10;}
	.st11{fill:url(#);}
	.st12{fill:none;stroke:#00B3D1;stroke-width:2.9818;stroke-miterlimit:10;}
	.st13{fill:none;stroke:#6F3DB0;stroke-width:6.9571;stroke-miterlimit:10;}
	.st14{fill:none;stroke:#6F3DB0;stroke-width:6.9571;stroke-miterlimit:10;stroke-dasharray:29.4635,29.4635;}
	.st15{fill:none;stroke:#6F3DB0;stroke-width:6.9571;stroke-miterlimit:10;stroke-dasharray:19.0572,19.0572;}
	.st16{fill:url(#SVGID_00000026165061905949133250000011416470326717506738_);}
	.st17{fill:#00FF15;}
	.st18{fill:none;stroke:#CCCCCC;stroke-width:3.1167;stroke-miterlimit:10;}
	.st19{fill:#132840;}
	.st20{fill:#FFFBD6;}
	.st21{filter:url(#Adobe_OpacityMaskFilter);}
	.st22{fill:url(#SVGID_00000007424122709798910350000013226985835103660452_);}
	.st23{filter:url(#Adobe_OpacityMaskFilter_00000173841396799983938060000013066137067121196469_);}
	.st24{fill:none;stroke:#EC008C;stroke-width:8.5039;stroke-miterlimit:10;}
</style>
<g>
	<g>
		<defs>
			<rect id="SVGID_1_" x="-1753.9" y="307.6" width="1919.9" height="536.8"/>
		</defs>
		<clipPath id="SVGID_00000176015437570619186880000013012749765975754375_">
			<use xlink:href="#SVGID_1_"  style="overflow:visible;"/>
		</clipPath>
	</g>
</g>
<g>
	<g>
		<path class="st5" d="M14.3,1.3L14.3,1.3c-5.2,0-9.4,4.2-9.4,9.4v6c0,0.9,0.7,1.6,1.6,1.6h15.7c0.9,0,1.6-0.7,1.6-1.6v-6
			C23.7,5.6,19.5,1.3,14.3,1.3z"/>
		<path class="st2" d="M0,14.9v25.8h28.5V14.9H0z M6.7,24.1c-1.3,0-2.3-0.9-2.3-1.9s1-1.9,2.3-1.9s2.3,0.9,2.3,1.9
			S7.9,24.1,6.7,24.1z M21.9,24.1c-1.3,0-2.3-0.9-2.3-1.9s1-1.9,2.3-1.9c1.3,0,2.3,0.9,2.3,1.9S23.1,24.1,21.9,24.1z"/>
	</g>
</g>
<g>
	<g>
		<defs>
			<rect id="SVGID_00000012431867154587208210000003663861471568962451_" x="907.1" y="307.6" width="1919.9" height="536.8"/>
		</defs>
		<clipPath id="SVGID_00000140002079637224613690000000255602805841603725_">
			<use xlink:href="#SVGID_00000012431867154587208210000003663861471568962451_"  style="overflow:visible;"/>
		</clipPath>
	</g>
</g>
</svg>
